<?xml version="1.0" encoding="UTF-8"?>
<svg version="1.1" xmlns="http://www.w3.org/2000/svg" width="1920" height="877">
<path d="M0 0 C633.6 0 1267.2 0 1920 0 C1920 289.41 1920 578.82 1920 877 C1286.4 877 652.8 877 0 877 C0 587.59 0 298.18 0 0 Z " fill="#000000" transform="translate(0,0)"/>
<path d="M0 0 C1.02412147 -0.00445541 2.04824293 -0.00891083 3.10339838 -0.01350125 C6.56417626 -0.02485044 10.02456357 -0.01468225 13.48534125 -0.00476122 C15.99061282 -0.00849474 18.49588271 -0.01354197 21.00114927 -0.01979005 C26.48029794 -0.03039864 31.95932734 -0.0316031 37.43847976 -0.02469462 C45.64099746 -0.01440501 53.84343848 -0.02134208 62.04595291 -0.03167468 C76.02392795 -0.04876782 90.00187353 -0.051531 103.97985667 -0.04655886 C118.15053772 -0.04156362 132.32119582 -0.04303641 146.49187487 -0.05244112 C147.83305912 -0.05332384 147.83305912 -0.05332384 149.20133799 -0.05422439 C152.84280237 -0.05664086 156.48426671 -0.05910093 160.12573102 -0.06161705 C197.12085993 -0.08714629 234.11597428 -0.093103 271.11111081 -0.0912059 C276.22582776 -0.09094628 281.3405447 -0.09070761 286.45526165 -0.09049082 C287.97904555 -0.09042476 287.97904555 -0.09042476 289.53361296 -0.09035737 C312.02976373 -0.08949457 334.52591222 -0.09428246 357.02206211 -0.10017273 C362.15615407 -0.10151369 367.29024604 -0.10281357 372.42433801 -0.10411838 C374.48479905 -0.1046429 376.54526009 -0.10516749 378.60572114 -0.10569215 C379.62704199 -0.10595193 380.64836285 -0.10621171 381.70063283 -0.10647936 C383.76644548 -0.10700554 385.83225814 -0.10753321 387.8980708 -0.10806238 C446.53107073 -0.1230635 505.16406885 -0.13182637 563.79707068 -0.12710619 C564.88324192 -0.12702032 565.96941316 -0.12693446 567.08849868 -0.12684599 C579.20096989 -0.12588656 591.31344109 -0.12484835 603.4259123 -0.12378711 C606.74122839 -0.12349759 610.05654448 -0.1232081 613.37186057 -0.1229187 C615.58389104 -0.1227247 617.79592151 -0.1225292 620.00795198 -0.12233221 C689.96627837 -0.11611551 759.92457017 -0.13097753 829.88288897 -0.16364336 C847.51013606 -0.1718663 865.13738318 -0.18001615 882.7646305 -0.18774462 C884.39260402 -0.18845891 884.39260402 -0.18845891 886.05346589 -0.18918764 C919.49225141 -0.20376904 952.93103405 -0.21221849 986.36982268 -0.21431017 C987.41933347 -0.21437649 988.46884426 -0.2144428 989.55015841 -0.21451113 C1012.5870434 -0.21590505 1035.62392818 -0.21579407 1058.66081315 -0.21430104 C1066.90338591 -0.21377891 1075.14595867 -0.21336175 1083.38853143 -0.21299287 C1085.43914847 -0.21289965 1087.48976552 -0.21280051 1089.54038257 -0.21269543 C1122.24345384 -0.21106894 1154.94649939 -0.22390874 1187.649564 -0.2438532 C1220.57887894 -0.26381772 1253.50815548 -0.26758014 1286.43747253 -0.24922746 C1290.98413288 -0.24669351 1295.5307933 -0.24433109 1300.07745379 -0.24206972 C1301.41440329 -0.24139415 1301.41440329 -0.24139415 1302.77836186 -0.24070493 C1316.91185224 -0.23401713 1331.04527896 -0.24413313 1345.17875854 -0.2611811 C1359.06421033 -0.27757905 1372.94956522 -0.27622842 1386.8350127 -0.25578274 C1394.983375 -0.24431951 1403.13145663 -0.24662112 1411.27979784 -0.26899791 C1417.31810022 -0.28406232 1423.35605704 -0.27324356 1429.39435356 -0.25207503 C1431.83017567 -0.24760287 1434.26603089 -0.25161723 1436.70182097 -0.26488338 C1439.99756415 -0.28162584 1443.29180271 -0.26777074 1446.58748436 -0.24609566 C1448.00717866 -0.26438063 1448.00717866 -0.26438063 1449.45555366 -0.28303499 C1455.80587547 -0.19602697 1460.0686333 1.28696175 1464.98176593 5.37834883 C1467.74353737 8.84168691 1468.3617616 11.39384342 1468.4016878 15.77605391 C1468.4255556 17.35843603 1468.4255556 17.35843603 1468.44990557 18.97278547 C1468.45010699 20.10306669 1468.45030841 21.23334791 1468.45051593 22.39788008 C1468.45812945 23.57041838 1468.46574298 24.74295668 1468.47358721 25.95102644 C1468.48438357 28.42979 1468.48724323 30.90859904 1468.48274249 33.38738203 C1468.48177204 37.16705082 1468.5233648 40.94467709 1468.56770343 44.72405195 C1468.57291205 47.13615711 1468.57559859 49.5482693 1468.57551593 51.96038008 C1468.59191119 53.0845886 1468.60830645 54.20879713 1468.62519854 55.36707258 C1468.57249045 61.39595977 1467.96427209 65.68391053 1464.6405794 70.77194929 C1459.38550552 75.8609773 1453.69902985 75.80672322 1446.83818269 75.75669765 C1445.8126589 75.76115307 1444.78713512 75.76560848 1443.73053486 75.77019891 C1440.27100898 75.78153251 1436.81187503 75.77138661 1433.35234946 75.76145887 C1430.84560977 75.76519303 1428.33887176 75.77024066 1425.83213708 75.77648771 C1420.35288291 75.7870905 1414.87374802 75.78830435 1409.39449013 75.78139228 C1401.19184491 75.77109737 1392.98927629 75.77804311 1384.78663434 75.78837233 C1370.80808625 75.80546055 1356.82956764 75.80822983 1342.85101146 75.80325651 C1328.68075129 75.79826045 1314.51051409 75.79973572 1300.34025592 75.80913877 C1298.99887791 75.81002149 1298.99887791 75.81002149 1297.63040136 75.81092204 C1293.9883869 75.81333853 1290.34637246 75.8157986 1286.70435807 75.8183147 C1249.70852948 75.84384045 1212.71271545 75.84980085 1175.71687925 75.84790355 C1170.60256773 75.84764394 1165.48825622 75.84740527 1160.3739447 75.84718847 C1159.35816682 75.84714443 1158.34238893 75.84710039 1157.2958299 75.84705502 C1134.79981021 75.84619216 1112.30379281 75.85098038 1089.80777402 75.85687038 C1084.67348726 75.85821135 1079.5392005 75.85951123 1074.40491373 75.86081603 C1072.34437352 75.86134055 1070.28383331 75.86186514 1068.22329309 75.8623898 C1066.69125244 75.86277947 1066.69125244 75.86277947 1065.12826146 75.86317701 C1063.06236712 75.86370319 1060.99647277 75.86423087 1058.93057842 75.86476003 C1000.29789151 75.87976047 941.66520642 75.88852431 883.03251761 75.88380384 C881.40336613 75.88367505 881.40336613 75.88367505 879.74130249 75.88354365 C867.62964541 75.88258422 855.51798833 75.88154601 843.40633125 75.88048476 C840.0912443 75.88019524 836.77615735 75.87990576 833.4610704 75.87961636 C831.24919339 75.87942236 829.03731638 75.87922686 826.82543937 75.87902986 C756.86703611 75.87281273 686.90866745 75.88767741 616.95027179 75.92034101 C599.32183387 75.92856394 581.69339593 75.93671378 564.0649578 75.94444227 C562.97957167 75.94491847 561.89418554 75.94539466 560.77590892 75.94588529 C527.33624471 75.96046614 493.89658336 75.96891606 460.45691603 75.97100782 C458.88267023 75.9711073 458.88267023 75.9711073 457.27662147 75.97120879 C434.2403596 75.97260268 411.20409793 75.97249175 388.16783606 75.97099869 C379.92558021 75.97047656 371.68332436 75.9700594 363.4410685 75.96969052 C361.39053019 75.96959731 359.33999187 75.96949817 357.28945356 75.96939308 C324.58543224 75.96776648 291.88143664 75.98060746 259.17742199 76.00055086 C226.2491414 76.02051313 193.32089923 76.02428008 160.39261656 76.00592511 C155.84663678 76.00339115 151.30065692 76.00102873 146.754677 75.99876738 C145.86350754 75.99831699 144.97233809 75.99786661 144.0541635 75.99740258 C129.91995193 75.9907135 115.78580401 76.00083324 101.65160324 76.01787876 C87.76715615 76.0342724 73.88280595 76.03293158 59.99836317 76.01248039 C51.84950703 76.00101271 43.70093152 76.00332862 35.55209644 76.02569556 C29.51521266 76.04074965 23.47867486 76.02995212 17.44179699 76.00877269 C15.00523958 76.00429732 12.5686491 76.00832467 10.13212364 76.02158104 C6.83779128 76.03830016 3.54496857 76.0244887 0.25069833 76.00279331 C-1.17258209 76.02107828 -1.17258209 76.02107828 -2.62461564 76.03973265 C-9.02705814 75.95176523 -12.19171296 74.62629284 -17.01823407 70.37834883 C-21.07352151 64.95279347 -20.48582398 58.72441879 -20.48698407 52.22600508 C-20.4945976 51.05251005 -20.50221112 49.87901503 -20.51005536 48.66995955 C-20.52084101 46.19297614 -20.52371574 43.71594732 -20.51921064 41.23894453 C-20.51823827 37.45716486 -20.55988322 33.67741398 -20.60417157 29.89592695 C-20.60937882 27.48512388 -20.61206676 25.07431377 -20.61198407 22.66350508 C-20.62837934 21.53727232 -20.6447746 20.41103956 -20.66166669 19.25067854 C-20.61074958 13.44389634 -20.25337505 9.39209551 -16.5793913 4.77066755 C-11.25903557 0.02570607 -6.84686112 -0.04979843 0 0 Z " fill="#1C4DD7" transform="translate(236.01823407411575,501.62165117263794)"/>
<path d="M0 0 C1.02412147 -0.00445541 2.04824293 -0.00891083 3.10339838 -0.01350125 C6.56417626 -0.02485044 10.02456357 -0.01468225 13.48534125 -0.00476122 C15.99061282 -0.00849474 18.49588271 -0.01354197 21.00114927 -0.01979005 C26.48029794 -0.03039864 31.95932734 -0.0316031 37.43847976 -0.02469462 C45.64099746 -0.01440501 53.84343848 -0.02134208 62.04595291 -0.03167468 C76.02392795 -0.04876782 90.00187353 -0.051531 103.97985667 -0.04655886 C118.15053772 -0.04156362 132.32119582 -0.04303641 146.49187487 -0.05244112 C147.83305912 -0.05332384 147.83305912 -0.05332384 149.20133799 -0.05422439 C152.84280237 -0.05664086 156.48426671 -0.05910093 160.12573102 -0.06161705 C197.12085993 -0.08714629 234.11597428 -0.093103 271.11111081 -0.0912059 C276.22582776 -0.09094628 281.3405447 -0.09070761 286.45526165 -0.09049082 C287.97904555 -0.09042476 287.97904555 -0.09042476 289.53361296 -0.09035737 C312.02976373 -0.08949457 334.52591222 -0.09428246 357.02206211 -0.10017273 C362.15615407 -0.10151369 367.29024604 -0.10281357 372.42433801 -0.10411838 C374.48479905 -0.1046429 376.54526009 -0.10516749 378.60572114 -0.10569215 C379.62704199 -0.10595193 380.64836285 -0.10621171 381.70063283 -0.10647936 C383.76644548 -0.10700554 385.83225814 -0.10753321 387.8980708 -0.10806238 C446.53107073 -0.1230635 505.16406885 -0.13182637 563.79707068 -0.12710619 C564.88324192 -0.12702032 565.96941316 -0.12693446 567.08849868 -0.12684599 C579.20096989 -0.12588656 591.31344109 -0.12484835 603.4259123 -0.12378711 C606.74122839 -0.12349759 610.05654448 -0.1232081 613.37186057 -0.1229187 C615.58389104 -0.1227247 617.79592151 -0.1225292 620.00795198 -0.12233221 C689.96627837 -0.11611551 759.92457017 -0.13097753 829.88288897 -0.16364336 C847.51013606 -0.1718663 865.13738318 -0.18001615 882.7646305 -0.18774462 C884.39260402 -0.18845891 884.39260402 -0.18845891 886.05346589 -0.18918764 C919.49225141 -0.20376904 952.93103405 -0.21221849 986.36982268 -0.21431017 C987.41933347 -0.21437649 988.46884426 -0.2144428 989.55015841 -0.21451113 C1012.5870434 -0.21590505 1035.62392818 -0.21579407 1058.66081315 -0.21430104 C1066.90338591 -0.21377891 1075.14595867 -0.21336175 1083.38853143 -0.21299287 C1085.43914847 -0.21289965 1087.48976552 -0.21280051 1089.54038257 -0.21269543 C1122.24345384 -0.21106894 1154.94649939 -0.22390874 1187.649564 -0.2438532 C1220.57887894 -0.26381772 1253.50815548 -0.26758014 1286.43747253 -0.24922746 C1290.98413288 -0.24669351 1295.5307933 -0.24433109 1300.07745379 -0.24206972 C1301.41440329 -0.24139415 1301.41440329 -0.24139415 1302.77836186 -0.24070493 C1316.91185224 -0.23401713 1331.04527896 -0.24413313 1345.17875854 -0.2611811 C1359.06421033 -0.27757905 1372.94956522 -0.27622842 1386.8350127 -0.25578274 C1394.983375 -0.24431951 1403.13145663 -0.24662112 1411.27979784 -0.26899791 C1417.31810022 -0.28406232 1423.35605704 -0.27324356 1429.39435356 -0.25207503 C1431.83017567 -0.24760287 1434.26603089 -0.25161723 1436.70182097 -0.26488338 C1439.99756415 -0.28162584 1443.29180271 -0.26777074 1446.58748436 -0.24609566 C1448.00717866 -0.26438063 1448.00717866 -0.26438063 1449.45555366 -0.28303499 C1455.80587547 -0.19602697 1460.0686333 1.28696175 1464.98176593 5.37834883 C1467.74353737 8.84168691 1468.3617616 11.39384342 1468.4016878 15.77605391 C1468.4255556 17.35843603 1468.4255556 17.35843603 1468.44990557 18.97278547 C1468.45010699 20.10306669 1468.45030841 21.23334791 1468.45051593 22.39788008 C1468.45812945 23.57041838 1468.46574298 24.74295668 1468.47358721 25.95102644 C1468.48438357 28.42979 1468.48724323 30.90859904 1468.48274249 33.38738203 C1468.48177204 37.16705082 1468.5233648 40.94467709 1468.56770343 44.72405195 C1468.57291205 47.13615711 1468.57559859 49.5482693 1468.57551593 51.96038008 C1468.59191119 53.0845886 1468.60830645 54.20879713 1468.62519854 55.36707258 C1468.57249045 61.39595977 1467.96427209 65.68391053 1464.6405794 70.77194929 C1459.38550552 75.8609773 1453.69902985 75.80672322 1446.83818269 75.75669765 C1445.8126589 75.76115307 1444.78713512 75.76560848 1443.73053486 75.77019891 C1440.27100898 75.78153251 1436.81187503 75.77138661 1433.35234946 75.76145887 C1430.84560977 75.76519303 1428.33887176 75.77024066 1425.83213708 75.77648771 C1420.35288291 75.7870905 1414.87374802 75.78830435 1409.39449013 75.78139228 C1401.19184491 75.77109737 1392.98927629 75.77804311 1384.78663434 75.78837233 C1370.80808625 75.80546055 1356.82956764 75.80822983 1342.85101146 75.80325651 C1328.68075129 75.79826045 1314.51051409 75.79973572 1300.34025592 75.80913877 C1298.99887791 75.81002149 1298.99887791 75.81002149 1297.63040136 75.81092204 C1293.9883869 75.81333853 1290.34637246 75.8157986 1286.70435807 75.8183147 C1249.70852948 75.84384045 1212.71271545 75.84980085 1175.71687925 75.84790355 C1170.60256773 75.84764394 1165.48825622 75.84740527 1160.3739447 75.84718847 C1159.35816682 75.84714443 1158.34238893 75.84710039 1157.2958299 75.84705502 C1134.79981021 75.84619216 1112.30379281 75.85098038 1089.80777402 75.85687038 C1084.67348726 75.85821135 1079.5392005 75.85951123 1074.40491373 75.86081603 C1072.34437352 75.86134055 1070.28383331 75.86186514 1068.22329309 75.8623898 C1066.69125244 75.86277947 1066.69125244 75.86277947 1065.12826146 75.86317701 C1063.06236712 75.86370319 1060.99647277 75.86423087 1058.93057842 75.86476003 C1000.29789151 75.87976047 941.66520642 75.88852431 883.03251761 75.88380384 C881.40336613 75.88367505 881.40336613 75.88367505 879.74130249 75.88354365 C867.62964541 75.88258422 855.51798833 75.88154601 843.40633125 75.88048476 C840.0912443 75.88019524 836.77615735 75.87990576 833.4610704 75.87961636 C831.24919339 75.87942236 829.03731638 75.87922686 826.82543937 75.87902986 C756.86703611 75.87281273 686.90866745 75.88767741 616.95027179 75.92034101 C599.32183387 75.92856394 581.69339593 75.93671378 564.0649578 75.94444227 C562.97957167 75.94491847 561.89418554 75.94539466 560.77590892 75.94588529 C527.33624471 75.96046614 493.89658336 75.96891606 460.45691603 75.97100782 C458.88267023 75.9711073 458.88267023 75.9711073 457.27662147 75.97120879 C434.2403596 75.97260268 411.20409793 75.97249175 388.16783606 75.97099869 C379.92558021 75.97047656 371.68332436 75.9700594 363.4410685 75.96969052 C361.39053019 75.96959731 359.33999187 75.96949817 357.28945356 75.96939308 C324.58543224 75.96776648 291.88143664 75.98060746 259.17742199 76.00055086 C226.2491414 76.02051313 193.32089923 76.02428008 160.39261656 76.00592511 C155.84663678 76.00339115 151.30065692 76.00102873 146.754677 75.99876738 C145.86350754 75.99831699 144.97233809 75.99786661 144.0541635 75.99740258 C129.91995193 75.9907135 115.78580401 76.00083324 101.65160324 76.01787876 C87.76715615 76.0342724 73.88280595 76.03293158 59.99836317 76.01248039 C51.84950703 76.00101271 43.70093152 76.00332862 35.55209644 76.02569556 C29.51521266 76.04074965 23.47867486 76.02995212 17.44179699 76.00877269 C15.00523958 76.00429732 12.5686491 76.00832467 10.13212364 76.02158104 C6.83779128 76.03830016 3.54496857 76.0244887 0.25069833 76.00279331 C-1.17258209 76.02107828 -1.17258209 76.02107828 -2.62461564 76.03973265 C-9.02705814 75.95176523 -12.19171296 74.62629284 -17.01823407 70.37834883 C-21.07352151 64.95279347 -20.48582398 58.72441879 -20.48698407 52.22600508 C-20.4945976 51.05251005 -20.50221112 49.87901503 -20.51005536 48.66995955 C-20.52084101 46.19297614 -20.52371574 43.71594732 -20.51921064 41.23894453 C-20.51823827 37.45716486 -20.55988322 33.67741398 -20.60417157 29.89592695 C-20.60937882 27.48512388 -20.61206676 25.07431377 -20.61198407 22.66350508 C-20.62837934 21.53727232 -20.6447746 20.41103956 -20.66166669 19.25067854 C-20.61074958 13.44389634 -20.25337505 9.39209551 -16.5793913 4.77066755 C-11.25903557 0.02570607 -6.84686112 -0.04979843 0 0 Z " fill="#F9CB14" transform="translate(236.01823407411575,386.62165117263794)"/>
<path d="M0 0 C1.02342704 -0.00433118 2.04685408 -0.00866236 3.10129406 -0.01312479 C6.5597068 -0.02405404 10.01772596 -0.01346242 13.47613591 -0.00311857 C15.9797019 -0.00654889 18.48326637 -0.01129351 20.98682764 -0.01723954 C26.46223703 -0.02718838 31.93752594 -0.02773313 37.41293696 -0.02016651 C45.60985371 -0.00889304 53.80669566 -0.01485994 62.00361156 -0.0242305 C75.97204733 -0.03968644 89.94045199 -0.04082911 103.90889329 -0.03425127 C118.06989822 -0.02763072 132.23088088 -0.02748948 146.39188546 -0.03529841 C147.73215479 -0.0360304 147.73215479 -0.0360304 149.09950027 -0.03677719 C152.73848066 -0.03878531 156.37746102 -0.0408384 160.01644134 -0.04294893 C196.98632164 -0.0643681 233.95618549 -0.0664001 270.92607044 -0.06089189 C276.03729515 -0.06013621 281.14851986 -0.05940858 286.25974458 -0.05870992 C287.27490694 -0.05857083 288.29006929 -0.05843174 289.33599414 -0.05828843 C311.81679315 -0.05533825 334.29759018 -0.05834684 356.77838883 -0.06260621 C359.85361218 -0.06318837 362.92883552 -0.06375721 366.00405887 -0.06432184 C374.24733714 -0.06583674 382.4906154 -0.06736365 390.73389366 -0.06891485 C448.29337328 -0.07967468 505.85285106 -0.08437019 563.41233128 -0.07644469 C564.49776133 -0.07629638 565.58319137 -0.07614807 566.70151323 -0.07599527 C578.80571874 -0.07433622 590.90992424 -0.07258664 603.01412974 -0.07080226 C604.65343469 -0.07056073 604.65343469 -0.07056073 606.32585692 -0.07031431 C615.19656659 -0.06900636 615.19656659 -0.06900636 619.58485332 -0.06835312 C689.49542743 -0.0579608 759.40597636 -0.0657284 829.3165471 -0.08935457 C846.93176267 -0.09529777 864.54697826 -0.10118925 882.16219395 -0.1067639 C883.24676888 -0.10710767 884.33134381 -0.10745144 885.44878464 -0.10780563 C918.86475397 -0.11832983 952.28072119 -0.12392688 985.69669217 -0.12432104 C987.26988445 -0.12434022 987.26988445 -0.12434022 988.8748584 -0.12435978 C1011.89602992 -0.12458805 1034.91720125 -0.12358217 1057.93837266 -0.12145072 C1066.1753234 -0.12069593 1074.41227414 -0.12001773 1082.64922488 -0.11937057 C1084.69844322 -0.11920788 1086.74766156 -0.11904022 1088.7968799 -0.11886756 C1121.47762393 -0.11614401 1154.1583527 -0.12471071 1186.83909345 -0.13872166 C1220.66028794 -0.15311524 1254.48145336 -0.15269729 1288.30264685 -0.13534694 C1291.93185363 -0.13354269 1295.56106043 -0.13180251 1299.19026726 -0.13011271 C1300.08095918 -0.12969221 1300.9716511 -0.12927171 1301.88933368 -0.12883846 C1316.01316193 -0.12253185 1330.13695034 -0.12965822 1344.26077298 -0.14232191 C1358.13673968 -0.15448139 1372.0126433 -0.15243422 1385.88860518 -0.13510159 C1394.03136472 -0.12535732 1402.17394542 -0.12661828 1410.31669339 -0.14393157 C1416.35084014 -0.15554681 1422.3847641 -0.14645621 1428.41890499 -0.12908572 C1430.85305967 -0.12533135 1433.28723604 -0.12836489 1435.72137126 -0.13879881 C1439.01468594 -0.1519495 1442.30703538 -0.1406258 1445.60030842 -0.12304783 C1446.54611203 -0.13272893 1447.49191565 -0.14241004 1448.46637998 -0.15238451 C1455.77615229 -0.07168232 1461.25507121 1.60027082 1466.45497483 6.88354582 C1468.70509072 12.01080034 1468.56010427 16.73328501 1468.51942796 22.27563566 C1468.52516831 23.99902662 1468.52516831 23.99902662 1468.53102463 25.75723356 C1468.5337416 28.18297288 1468.52639562 30.6087416 1468.50966233 33.03442472 C1468.48829071 36.73268668 1468.50945306 40.42899721 1468.53505296 44.12719816 C1468.53240888 46.48918159 1468.52728225 48.85116381 1468.51942796 51.21313566 C1468.52752488 52.31233335 1468.5356218 53.41153105 1468.54396409 54.54403776 C1468.46660533 60.93175839 1468.07605188 66.2586607 1463.98817796 71.37719816 C1458.26493028 75.59497686 1452.49262149 75.94856661 1445.60260975 75.87974548 C1444.06153146 75.88834573 1444.06153146 75.88834573 1442.48932027 75.89711972 C1439.03540283 75.91149313 1435.58219392 75.89731752 1432.1282832 75.88335603 C1429.62091656 75.887831 1427.11355254 75.89405789 1424.60619411 75.90188137 C1419.13175528 75.9149053 1413.65753133 75.91544916 1408.18309062 75.90512479 C1399.98771644 75.88974175 1391.79247406 75.89740992 1383.59710023 75.90957142 C1369.63018034 75.92961631 1355.66331651 75.93062358 1341.69638795 75.92131132 C1327.53986358 75.91193749 1313.3833785 75.91122104 1299.22685403 75.92109579 C1298.33315458 75.92171296 1297.43945513 75.92233013 1296.51867389 75.922966 C1292.87885715 75.92550741 1289.23904046 75.92810922 1285.59922382 75.93078802 C1248.63500466 75.95796604 1211.67081558 75.95938046 1174.70658945 75.95083 C1169.59755895 75.94965705 1164.48852845 75.94852391 1159.37949795 75.94743174 C1158.36475984 75.9472146 1157.35002174 75.94699746 1156.304534 75.94677374 C1133.82779284 75.94214332 1111.35105506 75.94556351 1088.87431428 75.95069825 C1085.79918016 75.95140059 1082.72404604 75.95208558 1079.64891192 75.9527654 C1071.40581637 75.95459076 1063.16272081 75.95643634 1054.91962527 75.95831817 C1031.87574999 75.963543 1008.83187457 75.96735509 985.78799886 75.97002405 C984.21385747 75.97020637 984.21385747 75.97020637 982.60791524 75.97039237 C949.16054824 75.97415688 915.71318474 75.97156424 882.2658183 75.96478456 C881.18072389 75.96456601 880.09562947 75.96434745 878.97765341 75.96412228 C866.87731301 75.96167701 854.77697264 75.95910711 842.67663228 75.95648689 C841.5841199 75.95625035 840.49160752 75.95601381 839.3659887 75.9557701 C834.94777266 75.95481272 830.52955661 75.95385517 826.11134057 75.95288995 C756.21407008 75.93763955 686.31684056 75.94563764 616.41957444 75.97412199 C598.80524771 75.98128634 581.19092096 75.98838885 563.57659405 75.99510378 C561.94981192 75.9957251 561.94981192 75.9957251 560.29016551 75.99635898 C526.87729798 76.00903831 493.46443387 76.0155508 460.05156392 76.0155105 C458.47859337 76.0155093 458.47859337 76.0155093 456.87384564 76.01550807 C433.85634269 76.01542388 410.83884005 76.01378445 387.82133731 76.01072968 C379.58585195 76.00964573 371.35036657 76.00865445 363.11488119 76.00769881 C361.0660361 76.00745874 359.017191 76.00721234 356.96834591 76.0069596 C324.29228441 76.00296236 291.61624613 76.01296087 258.94018926 76.02966385 C225.12733267 76.04681119 191.31452206 76.04539071 157.50166809 76.02275784 C153.87381238 76.0204012 150.24595662 76.01812432 146.61810082 76.01591009 C145.72773976 76.01535938 144.83737871 76.01480867 143.92003701 76.01424128 C129.79869888 76.00595795 115.67742249 76.01446699 101.55609245 76.02988829 C87.6843412 76.04468421 73.81268907 76.0417324 59.94094642 76.01965389 C51.79959354 76.00722963 43.65851963 76.00857819 35.51718379 76.02996547 C29.48586496 76.04429302 23.45489552 76.03276947 17.42358697 76.01086335 C14.98929055 76.00609335 12.55496002 76.00982421 10.12069342 76.02278237 C6.8294009 76.03909783 3.53962268 76.02488708 0.24839699 76.00279331 C-0.69956109 76.01486516 -1.64751918 76.026937 -2.62420327 76.03937466 C-9.01769859 75.95068164 -12.21171396 74.65213987 -17.01182204 70.37719816 C-20.75903967 64.36707531 -20.47930355 58.28132982 -20.48057204 51.34594816 C-20.48818557 50.19606413 -20.4957991 49.04618009 -20.50364333 47.86145109 C-20.51441781 45.43752292 -20.51730828 43.01354842 -20.51279861 40.5896005 C-20.51182518 36.88910516 -20.5535047 33.1906764 -20.59775954 29.49047941 C-20.60296615 27.12980663 -20.60565475 24.76912668 -20.60557204 22.40844816 C-20.62196731 21.30722624 -20.63836257 20.20600431 -20.65525466 19.07141203 C-20.60368544 13.31910017 -20.1977526 9.35869621 -16.57297927 4.77844328 C-11.26806534 0.01692111 -6.84113035 -0.05063922 0 0 Z " fill="#B81B1B" transform="translate(236.0118220448494,616.6228018403053)"/>
<path d="M0 0 C0.83959763 -0.00761353 1.67919525 -0.01522705 2.54423523 -0.02307129 C4.31681352 -0.03385078 6.08945521 -0.03673414 7.86206055 -0.03222656 C10.55562045 -0.0312567 13.24630592 -0.07284775 15.93945312 -0.1171875 C17.66796286 -0.12239714 19.39648242 -0.12508265 21.125 -0.125 C21.92110184 -0.14139526 22.71720367 -0.15779053 23.53742981 -0.17468262 C29.57242607 -0.10118356 33.55003766 1.71877651 38.26171875 5.46875 C41.43437028 9.03798298 41.84616965 12.48188223 41.67578125 17.12109375 C40.95707224 21.19603821 39.13900203 24.51117044 36.26171875 27.46875 C31.21053339 30.59509867 27.14986907 30.93605027 21.390625 30.9375 C20.55007065 30.94511353 19.7095163 30.95272705 18.8434906 30.96057129 C17.07269244 30.97133583 15.30183098 30.97424027 13.53100586 30.96972656 C10.83533995 30.96875401 8.14252137 31.01041831 5.44726562 31.0546875 C3.72005797 31.05989521 1.9928405 31.06258268 0.265625 31.0625 C-0.9315641 31.0870929 -0.9315641 31.0870929 -2.15293884 31.11218262 C-7.93189159 31.04151031 -11.54373145 29.47661094 -15.73828125 25.46875 C-18.62763399 21.3677332 -19.33059499 17.63801415 -19.15625 12.71484375 C-18.26712725 7.93684765 -15.46259923 4.78331687 -11.68554688 1.90380859 C-7.7151173 -0.02944066 -4.36164266 0.00109515 0 0 Z " fill="#F9F9F9" transform="translate(1848.73828125,31.53125)"/>
<path d="M0 0 C4.54144994 -0.11647041 9.08251394 -0.18734502 13.625 -0.25 C15.55279297 -0.30027344 15.55279297 -0.30027344 17.51953125 -0.3515625 C26.96103613 -0.44940193 26.96103613 -0.44940193 31.6484375 1.578125 C38.60310936 8.74074386 38.6257257 14.74090569 38.5 24.4375 C38.51546875 25.62666016 38.5309375 26.81582031 38.546875 28.04101562 C38.48812716 41.26662402 38.48812716 41.26662402 34 46 C27.04930746 50.61969794 19.43792942 50.50472195 11.375 50.25 C10.27542969 50.23195312 9.17585938 50.21390625 8.04296875 50.1953125 C5.36103297 50.14867014 2.68100657 50.08324119 0 50 C0 48.35 0 46.7 0 45 C1.65 45 3.3 45 5 45 C5 31.8 5 18.6 5 5 C3.35 5 1.7 5 0 5 C0 3.35 0 1.7 0 0 Z " fill="#106630" transform="translate(1113,200)"/>
<path d="M0 0 C25 0 25 0 33 4 C36.68853243 9.44058534 38.23751171 14.43633494 37 21 C35.26016146 24.18970398 33.55304507 26.44695493 31 29 C31.65194336 29.54817383 32.30388672 30.09634766 32.97558594 30.66113281 C35.44235105 33.51106163 35.47303927 34.71323295 35.390625 38.421875 C35.37773438 39.44667969 35.36484375 40.47148437 35.3515625 41.52734375 C35.31804687 42.59082031 35.28453125 43.65429688 35.25 44.75 C35.23195313 45.82894531 35.21390625 46.90789062 35.1953125 48.01953125 C35.14821415 50.68058788 35.082456 53.33984254 35 56 C32.69 56 30.38 56 28 56 C27.67 48.74 27.34 41.48 27 34 C20.4 33.67 13.8 33.34 7 33 C7 40.59 7 48.18 7 56 C4.69 56 2.38 56 0 56 C0 37.52 0 19.04 0 0 Z " fill="#B91C1C" transform="translate(1016,198)"/>
<path d="M0 0 C4.46341087 3.02306065 7.39332313 7.3440319 9.08203125 12.41015625 C9.82344625 19.25305206 9.17256746 24.75892315 5.08203125 30.41015625 C0.5103035 35.33259188 -4.0977587 37.47124173 -10.73046875 37.78515625 C-16.61125152 37.64513761 -21.11817477 36.01047382 -25.453125 31.984375 C-30.1821318 26.64873176 -31.40903907 21.93739642 -31.22265625 14.96875 C-30.61182087 9.83929904 -28.77615593 6.12626875 -24.9765625 2.6171875 C-17.03773873 -3.53795948 -9.13902402 -4.46547759 0 0 Z " fill="#F06F15" transform="translate(1810.91796875,29.58984375)"/>
<path d="M0 0 C4.29 0 8.58 0 13 0 C18.82528538 18.62203497 24.51192298 37.27530634 30 56 C27.36 56 24.72 56 22 56 C21.49528803 54.23050388 20.99639315 52.45934777 20.5 50.6875 C20.2215625 49.70136719 19.943125 48.71523438 19.65625 47.69921875 C19 45 19 45 19 42 C10.75 42 2.5 42 -6 42 C-6.66 45.3 -7.32 48.6 -8 52 C-8.33 53.32 -8.66 54.64 -9 56 C-11.64 56 -14.28 56 -17 56 C-11.64003258 37.22701355 -6.07522573 18.55675216 0 0 Z " fill="#15803D" transform="translate(831,208)"/>
<path d="M0 0 C3.99275459 2.35301965 6.77806038 5.15741818 8.625 9.4375 C9.27793848 12.77528252 9.54980933 16.04024866 9.625 19.4375 C7.315 19.4375 5.005 19.4375 2.625 19.4375 C2.52703125 18.83421875 2.4290625 18.2309375 2.328125 17.609375 C1.41807967 12.74533959 0.77050477 9.54662858 -3.375 6.4375 C-6.83750243 4.70624879 -10.58908229 4.95934776 -14.375 5.4375 C-17.89504822 7.53455 -20.00776699 9.56367313 -21.375 13.4375 C-23.36458669 23.2692532 -23.56023611 34.88179168 -20.375 44.4375 C-18.45175139 46.84156076 -17.09660933 48.07669534 -14.375 49.4375 C-12.29935324 49.63508231 -12.29935324 49.63508231 -10 49.625 C-9.22914063 49.63917969 -8.45828125 49.65335938 -7.6640625 49.66796875 C-5.09733893 49.40954436 -3.54539118 48.81908234 -1.375 47.4375 C1.49444376 42.86764513 1.82166006 40.0608796 2.625 34.4375 C-3.315 34.4375 -9.255 34.4375 -15.375 34.4375 C-15.375 32.4575 -15.375 30.4775 -15.375 28.4375 C-7.125 28.4375 1.125 28.4375 9.625 28.4375 C9.625 37.3475 9.625 46.2575 9.625 55.4375 C7.645 55.4375 5.665 55.4375 3.625 55.4375 C3.13 52.4675 3.13 52.4675 2.625 49.4375 C2.068125 50.22125 1.51125 51.005 0.9375 51.8125 C-2.00619245 55.15398872 -4.0198199 56.14423045 -8.4140625 56.69140625 C-14.24070987 57.00176032 -18.57942765 55.77591431 -23.375 52.4375 C-30.33048999 45.48201001 -29.76936388 36.90904402 -29.8125 27.6875 C-29.84537109 26.46289062 -29.87824219 25.23828125 -29.91210938 23.9765625 C-29.95851685 16.09572863 -29.03214149 9.95684065 -24.375 3.4375 C-17.95327385 -2.60582287 -7.93941155 -3.53870915 0 0 Z " fill="#F97316" transform="translate(994.375,200.5625)"/>
<path d="M0 0 C4.35562064 2.18949803 6.88018443 4.94786887 9.0625 9.3125 C9.13200541 10.85273996 9.14702357 12.39584988 9.125 13.9375 C9.11597656 14.75476563 9.10695313 15.57203125 9.09765625 16.4140625 C9.08605469 17.04054687 9.07445312 17.66703125 9.0625 18.3125 C7.0825 18.3125 5.1025 18.3125 3.0625 18.3125 C2.91554688 17.54164063 2.76859375 16.77078125 2.6171875 15.9765625 C1.50511546 9.854119 1.50511546 9.854119 -2.5625 5.625 C-3.67625 5.521875 -4.79 5.41875 -5.9375 5.3125 C-6.65679688 5.23644531 -7.37609375 5.16039062 -8.1171875 5.08203125 C-12.16861382 4.82966968 -14.7095697 5.21652935 -18.5 6.8125 C-21.08004336 9.45869831 -21.34649368 9.90191959 -21.5 13.375 C-20.92673183 17.69015673 -20.92673183 17.69015673 -17.9375 20.3125 C-15.93235693 21.10374211 -15.93235693 21.10374211 -13.69921875 21.55859375 C-12.87873047 21.75646484 -12.05824219 21.95433594 -11.21289062 22.15820312 C-9.49961508 22.54999368 -7.78607635 22.94063529 -6.07226562 23.33007812 C0.25555239 24.85884729 5.1207826 26.46464781 8.9375 32.0625 C10.8461524 37.57638471 10.59635243 41.62665024 8.875 47.0625 C6.42610365 51.45362448 3.93260074 53.42197584 -0.5625 55.5625 C-7.35238085 57.07136241 -14.59249547 57.28314112 -21.08203125 54.5 C-25.58956936 51.61517561 -29.24906855 47.37779434 -30.9375 42.3125 C-31.00490865 40.75131572 -31.02264456 39.1874748 -31 37.625 C-30.99097656 36.81675781 -30.98195313 36.00851563 -30.97265625 35.17578125 C-30.96105469 34.56089844 -30.94945312 33.94601563 -30.9375 33.3125 C-28.9575 33.3125 -26.9775 33.3125 -24.9375 33.3125 C-24.69966797 34.43398437 -24.69966797 34.43398437 -24.45703125 35.578125 C-23.05674056 41.84171422 -23.05674056 41.84171422 -19.375 46.9375 C-14.22532956 49.8424423 -9.81034401 49.8040223 -3.9375 49.3125 C-0.81812031 47.93997293 0.5522715 47.332957 2.0625 44.3125 C2.71293335 38.89887745 2.71293335 38.89887745 0.56640625 34.1796875 C-2.86493406 31.62090331 -6.15824812 31.0833921 -10.3125 30.3125 C-17.29815145 29.00269035 -23.21465226 27.02963148 -27.9375 21.3125 C-29.72733568 15.94299295 -29.82181724 11.11514667 -27.3125 6 C-20.08123286 -2.18274965 -10.06210504 -4.13831186 0 0 Z " fill="#FACC15" transform="translate(896.9375,204.6875)"/>
<path d="M0 0 C1.25554687 -0.00128906 2.51109375 -0.00257813 3.8046875 -0.00390625 C4.46178711 -0.00181152 5.11888672 0.0002832 5.79589844 0.00244141 C7.80411335 0.00779016 9.81210459 0.00249559 11.8203125 -0.00390625 C13.07585937 -0.00261719 14.33140625 -0.00132812 15.625 0 C16.78644531 0.00112793 17.94789062 0.00225586 19.14453125 0.00341797 C21.8125 0.1328125 21.8125 0.1328125 22.8125 1.1328125 C22.91243532 3.1933656 22.94330906 5.2573384 22.9453125 7.3203125 C22.94724609 9.20363281 22.94724609 9.20363281 22.94921875 11.125 C22.94607666 12.11064941 22.94607666 12.11064941 22.94287109 13.11621094 C22.93752234 15.12442585 22.94281691 17.13241709 22.94921875 19.140625 C22.94792969 20.39617188 22.94664063 21.65171875 22.9453125 22.9453125 C22.94418457 24.10675781 22.94305664 25.26820313 22.94189453 26.46484375 C22.8125 29.1328125 22.8125 29.1328125 21.8125 30.1328125 C19.7519469 30.23274782 17.6879741 30.26362156 15.625 30.265625 C14.36945313 30.26691406 13.11390625 30.26820313 11.8203125 30.26953125 C11.16321289 30.26743652 10.50611328 30.2653418 9.82910156 30.26318359 C7.82088665 30.25783484 5.81289541 30.26312941 3.8046875 30.26953125 C2.54914063 30.26824219 1.29359375 30.26695312 0 30.265625 C-1.16144531 30.26449707 -2.32289062 30.26336914 -3.51953125 30.26220703 C-6.1875 30.1328125 -6.1875 30.1328125 -7.1875 29.1328125 C-7.28743532 27.0722594 -7.31830906 25.0082866 -7.3203125 22.9453125 C-7.32160156 21.68976562 -7.32289062 20.43421875 -7.32421875 19.140625 C-7.32212402 18.48352539 -7.3200293 17.82642578 -7.31787109 17.14941406 C-7.31252234 15.14119915 -7.31781691 13.13320791 -7.32421875 11.125 C-7.32292969 9.86945312 -7.32164063 8.61390625 -7.3203125 7.3203125 C-7.31862061 5.57814453 -7.31862061 5.57814453 -7.31689453 3.80078125 C-7.07536492 -1.179286 -4.38338655 0.0042569 0 0 Z " fill="#070A0E" transform="translate(1048.1875,741.8671875)"/>
<path d="M0 0 C14.51219512 0 14.51219512 0 19 4 C22.76239255 11.74610231 21.9673608 23.42153548 20.25 31.625 C18.96238515 35.1015601 17.93477342 36.7766868 15 39 C12 40 12 40 0 40 C0 26.8 0 13.6 0 0 Z " fill="#000000" transform="translate(1124,205)"/>
<path d="M0 0 C11.55 0 23.1 0 35 0 C35 1.98 35 3.96 35 6 C30.38 6 25.76 6 21 6 C21 20.52 21 35.04 21 50 C25.62 50 30.24 50 35 50 C35 51.98 35 53.96 35 56 C23.45 56 11.9 56 0 56 C0 54.02 0 52.04 0 50 C4.62 50 9.24 50 14 50 C14 35.48 14 20.96 14 6 C9.38 6 4.76 6 0 6 C0 4.02 0 2.04 0 0 Z " fill="#1D4ED8" transform="translate(1065,197)"/>
<path d="M0 0 C11.22 0 22.44 0 34 0 C34 1.98 34 3.96 34 6 C24.76 6 15.52 6 6 6 C6 12.27 6 18.54 6 25 C15.24 25 24.48 25 34 25 C34 26.98 34 28.96 34 31 C24.76 31 15.52 31 6 31 C6 39.25 6 47.5 6 56 C4.02 56 2.04 56 0 56 C0 37.52 0 19.04 0 0 Z " fill="#1D4ED8" transform="translate(772,212)"/>
<path d="M0 0 C12.87 0 25.74 0 39 0 C39 1.98 39 3.96 39 6 C33.72 6 28.44 6 23 6 C23 22.5 23 39 23 56 C20.69 56 18.38 56 16 56 C16 39.5 16 23 16 6 C10.72 6 5.44 6 0 6 C0 4.02 0 2.04 0 0 Z " fill="#F97316" transform="translate(916,200)"/>
<path d="M0 0 C2.701875 -0.0825 5.40375 -0.165 8.1875 -0.25 C9.02949951 -0.28641602 9.87149902 -0.32283203 10.73901367 -0.36035156 C14.67603679 -0.41837972 16.56872297 -0.27286024 19.98828125 1.890625 C23.33730945 5.40222738 23.33436737 8.04922673 23.2890625 12.73828125 C22.86115823 16.08634301 21.44926739 17.76066981 19 20 C15.23508833 21.25497056 11.72793525 21.10661648 7.8125 21.0625 C5.234375 21.041875 2.65625 21.02125 0 21 C0 14.07 0 7.14 0 0 Z " fill="#000000" transform="translate(1023,204)"/>
<path d="M0 0 C2.52066365 2.52066365 2.93312007 4.54660899 3.9453125 7.9609375 C4.29980469 9.15460938 4.65429688 10.34828125 5.01953125 11.578125 C5.38433594 12.83109375 5.74914062 14.0840625 6.125 15.375 C6.49753906 16.62023437 6.87007812 17.86546875 7.25390625 19.1484375 C10 28.48314446 10 28.48314446 10 33 C3.4 33 -3.2 33 -10 33 C-8.73835948 28.62121533 -7.4755599 24.24280092 -6.2097168 19.86523438 C-5.77933161 18.37552691 -5.34964046 16.88561875 -4.9206543 15.39550781 C-4.30439112 13.25532912 -3.68564639 11.11588146 -3.06640625 8.9765625 C-2.87470352 8.30879791 -2.68300079 7.64103333 -2.48548889 6.95303345 C-1.11387171 2.22774341 -1.11387171 2.22774341 0 0 Z " fill="#000000" transform="translate(837,211)"/>
<path d="M0 0 C3.67123639 0.01977327 4.15668193 0.29756585 7.1875 2.8125 C8.2084375 4.0809375 8.2084375 4.0809375 9.25 5.375 C9.58 5.705 9.91 6.035 10.25 6.375 C10.54322866 9.30728663 10.75004247 11.51991883 10.25 14.375 C7.8125 17.3125 7.8125 17.3125 5.25 19.375 C4.92 19.705 4.59 20.035 4.25 20.375 C1.31771337 20.66822866 -0.89491883 20.87504247 -3.75 20.375 C-6.6875 17.9375 -6.6875 17.9375 -8.75 15.375 C-9.08 15.045 -9.41 14.715 -9.75 14.375 C-10.04322866 11.44271337 -10.25004247 9.23008117 -9.75 6.375 C-7.3125 3.4375 -7.3125 3.4375 -4.75 1.375 C-3.75 0.375 -3.75 0.375 0 0 Z " fill="#0A0A0A" transform="translate(1874.75,36.625)"/>
<path d="M0 0 C0.99 0.33 1.98 0.66 3 1 C3 8.26 3 15.52 3 23 C1.68 23.33 0.36 23.66 -1 24 C-1.804375 22.824375 -1.804375 22.824375 -2.625 21.625 C-5.31603133 18.65070222 -7.1877458 18.01660112 -11 17 C-12.89488952 15.10511048 -12.18019112 12.42860854 -12.23046875 9.91015625 C-12 8 -12 8 -10 6 C-9.236875 5.71125 -8.47375 5.4225 -7.6875 5.125 C-4.84770331 4.09095457 -4.84770331 4.09095457 -2.375 1.8125 C-1.59125 1.214375 -0.8075 0.61625 0 0 Z " fill="#050200" transform="translate(1799,35)"/>
<path d="M0 0 C1.25554687 -0.00128906 2.51109375 -0.00257813 3.8046875 -0.00390625 C4.46178711 -0.00181152 5.11888672 0.0002832 5.79589844 0.00244141 C7.80411335 0.00779016 9.81210459 0.00249559 11.8203125 -0.00390625 C13.07585937 -0.00261719 14.33140625 -0.00132812 15.625 0 C16.78644531 0.00112793 17.94789062 0.00225586 19.14453125 0.00341797 C21.8125 0.1328125 21.8125 0.1328125 22.8125 1.1328125 C22.91243532 3.1933656 22.94330906 5.2573384 22.9453125 7.3203125 C22.94724609 9.20363281 22.94724609 9.20363281 22.94921875 11.125 C22.94607666 12.11064941 22.94607666 12.11064941 22.94287109 13.11621094 C22.93752234 15.12442585 22.94281691 17.13241709 22.94921875 19.140625 C22.94792969 20.39617188 22.94664063 21.65171875 22.9453125 22.9453125 C22.94418457 24.10675781 22.94305664 25.26820313 22.94189453 26.46484375 C22.8125 29.1328125 22.8125 29.1328125 21.8125 30.1328125 C19.7519469 30.23274782 17.6879741 30.26362156 15.625 30.265625 C14.36945313 30.26691406 13.11390625 30.26820313 11.8203125 30.26953125 C11.16321289 30.26743652 10.50611328 30.2653418 9.82910156 30.26318359 C7.82088665 30.25783484 5.81289541 30.26312941 3.8046875 30.26953125 C2.54914063 30.26824219 1.29359375 30.26695312 0 30.265625 C-1.16144531 30.26449707 -2.32289062 30.26336914 -3.51953125 30.26220703 C-6.1875 30.1328125 -6.1875 30.1328125 -7.1875 29.1328125 C-7.28743532 27.0722594 -7.31830906 25.0082866 -7.3203125 22.9453125 C-7.32160156 21.68976562 -7.32289062 20.43421875 -7.32421875 19.140625 C-7.32212402 18.48352539 -7.3200293 17.82642578 -7.31787109 17.14941406 C-7.31252234 15.14119915 -7.31781691 13.13320791 -7.32421875 11.125 C-7.32292969 9.86945312 -7.32164063 8.61390625 -7.3203125 7.3203125 C-7.31862061 5.57814453 -7.31862061 5.57814453 -7.31689453 3.80078125 C-7.07536492 -1.179286 -4.38338655 0.0042569 0 0 Z M-5.1875 2.1328125 C-5.1875 10.7128125 -5.1875 19.2928125 -5.1875 28.1328125 C3.3925 28.1328125 11.9725 28.1328125 20.8125 28.1328125 C20.8125 19.5528125 20.8125 10.9728125 20.8125 2.1328125 C12.2325 2.1328125 3.6525 2.1328125 -5.1875 2.1328125 Z " fill="#FCFCFC" transform="translate(1048.1875,741.8671875)"/>
<path d="M0 0 C2.11937309 -0.42410981 2.11937309 -0.42410981 4 -1 C4.02684679 1.64590014 4.04676357 4.29153096 4.0625 6.9375 C4.07087891 7.69224609 4.07925781 8.44699219 4.08789062 9.22460938 C4.09652441 11.14994313 4.05224333 13.07535581 4 15 C3 16 3 16 0.93359375 16.09765625 C0.10988281 16.08605469 -0.71382812 16.07445312 -1.5625 16.0625 C-2.38878906 16.05347656 -3.21507812 16.04445313 -4.06640625 16.03515625 C-5.02353516 16.01775391 -5.02353516 16.01775391 -6 16 C-6 15.01 -6 14.02 -6 13 C-3.69 13 -1.38 13 1 13 C0.67 12.01 0.34 11.02 0 10 C-0.763125 10.226875 -1.52625 10.45375 -2.3125 10.6875 C-5 11 -5 11 -6.8125 9.9375 C-8.52233914 7.14776246 -8.40111303 5.20890425 -8 2 C-5.72316904 -1.71482946 -3.89030593 -0.94885511 0 0 Z " fill="#000000" transform="translate(997,537)"/>
<path d="M0 0 C0.99 0 1.98 0 3 0 C3.33 1.65 3.66 3.3 4 5 C4.763125 4.773125 5.52625 4.54625 6.3125 4.3125 C9 4 9 4 10.8125 5.0625 C12.52233914 7.85223754 12.40111303 9.79109575 12 13 C10.8125 14.9375 10.8125 14.9375 9 16 C6.5625 15.625 6.5625 15.625 4 15 C2.68 15.33 1.36 15.66 0 16 C0 10.72 0 5.44 0 0 Z " fill="#000000" transform="translate(940,647)"/>
<path d="M0 0 C0.13277344 0.63808594 0.26554687 1.27617188 0.40234375 1.93359375 C0.57894531 2.75988281 0.75554687 3.58617187 0.9375 4.4375 C1.11152344 5.26121094 1.28554687 6.08492187 1.46484375 6.93359375 C1.80752994 8.97661204 1.80752994 8.97661204 3 10 C5.32817964 10.36760731 7.6618385 10.70241581 10 11 C9.75 12.875 9.75 12.875 9 15 C5.83489882 17.34451939 2.83665065 17.54809295 -1 17 C-4.63525215 14.39210172 -5.83397068 12.9297642 -6.625 8.5 C-6.05377232 5.30112498 -4.10236685 0 0 0 Z " fill="#111111" transform="translate(1843,38)"/>
<path d="M0 0 C1.98 0 3.96 0 6 0 C7.32 5.28 8.64 10.56 10 16 C8.68 16 7.36 16 6 16 C6 14.68 6 13.36 6 12 C4.02 12 2.04 12 0 12 C0 13.32 0 14.64 0 16 C-1.32 15.67 -2.64 15.34 -4 15 C-2.68 10.05 -1.36 5.1 0 0 Z " fill="#170303" transform="translate(929,647)"/>
<path d="M0 0 C0.33 3.96 0.66 7.92 1 12 C-0.32 11.67 -1.64 11.34 -3 11 C-3.845625 11.20625 -4.69125 11.4125 -5.5625 11.625 C-8 12 -8 12 -9.8125 10.9375 C-11.52233914 8.14776246 -11.40111303 6.20890425 -11 3 C-8.70019487 -1.31213463 -4.28166314 -0.2105736 0 0 Z " fill="#000000" transform="translate(972,421)"/>
<path d="M0 0 C8 0 8 0 10.0625 1.125 C11.46771358 3.93542716 10.72549141 6.03208058 10 9 C7.69 9.33 5.38 9.66 3 10 C3 11.98 3 13.96 3 16 C2.01 16 1.02 16 0 16 C0 10.72 0 5.44 0 0 Z " fill="#000000" transform="translate(934,417)"/>
<path d="M0 0 C1.8125 1.125 1.8125 1.125 3 3 C3.39310741 6.14485925 3.47555213 8.13281671 1.9375 10.9375 C-1.21566824 12.66665678 -3.62508255 11.8590699 -7 11 C-9 8 -9 8 -8.8125 4.9375 C-7.47741613 0.1106583 -4.61266905 -0.57658363 0 0 Z " fill="#000000" transform="translate(963,651)"/>
<path d="M0 0 C1.875 1.3125 1.875 1.3125 3 3 C3 3.99 3 4.98 3 6 C2.01 6 1.02 6 0 6 C-0.33 5.34 -0.66 4.68 -1 4 C-2.32 4.33 -3.64 4.66 -5 5 C-3.865625 5.474375 -2.73125 5.94875 -1.5625 6.4375 C2 8 2 8 3 9 C3.25 11.4375 3.25 11.4375 3 14 C-0.46923881 16.31282587 -1.92205575 16.42478586 -6 16 C-7.875 14.6875 -7.875 14.6875 -9 13 C-9 12.01 -9 11.02 -9 10 C-8.01 10 -7.02 10 -6 10 C-5.67 10.66 -5.34 11.32 -5 12 C-3.68 12 -2.36 12 -1 12 C-1 11.34 -1 10.68 -1 10 C-2.134375 9.5875 -3.26875 9.175 -4.4375 8.75 C-8 7 -8 7 -9.125 5 C-9 3 -9 3 -7.9375 1.25 C-5.15593839 -0.54455588 -3.24250962 -0.4053137 0 0 Z " fill="#000000" transform="translate(914,532)"/>
<path d="M0 0 C0.33 0 0.66 0 1 0 C1 5.94 1 11.88 1 18 C-0.98 16.35 -2.96 14.7 -5 13 C-7.72113503 12.13457301 -7.72113503 12.13457301 -10 12 C-10 10.02 -10 8.04 -10 6 C-8.63875 5.62875 -8.63875 5.62875 -7.25 5.25 C-3.88433837 3.95551476 -2.37473427 2.63859364 0 0 Z " fill="#E06713" transform="translate(1799,38)"/>
<path d="M0 0 C0.99 0 1.98 0 3 0 C3 2.97 3 5.94 3 9 C4.32 9 5.64 9 7 9 C7.33 6.03 7.66 3.06 8 0 C8.66 0 9.32 0 10 0 C10 5.61 10 11.22 10 17 C7.36 17 4.72 17 2 17 C2 16.01 2 15.02 2 14 C3.98 14 5.96 14 8 14 C7.67 13.01 7.34 12.02 7 11 C6.21625 11.20625 5.4325 11.4125 4.625 11.625 C3.75875 11.74875 2.8925 11.8725 2 12 C0 10 0 10 -0.1953125 7.6171875 C-0.17210937 6.71226562 -0.14890625 5.80734375 -0.125 4.875 C-0.10695313 3.96492188 -0.08890625 3.05484375 -0.0703125 2.1171875 C-0.04710937 1.41851562 -0.02390625 0.71984375 0 0 Z " fill="#000000" transform="translate(976,421)"/>
<path d="M0 0 C1.8125 1.8125 1.8125 1.8125 3 4 C3 4.99 3 5.98 3 7 C1.68 7.33 0.36 7.66 -1 8 C-0.01 8.33 0.98 8.66 2 9 C1.01 10.485 1.01 10.485 0 12 C-3.375 11.75 -3.375 11.75 -7 11 C-9.01379322 8.65057458 -9.03170576 7.44388057 -8.8125 4.375 C-7.31378577 -0.00585698 -4.20901178 -0.63135177 0 0 Z " fill="#010308" transform="translate(928,536)"/>
<path d="M0 0 C0.33 0.99 0.66 1.98 1 3 C-0.98 3 -2.96 3 -5 3 C-3.02 3.66 -1.04 4.32 1 5 C0.125 9.875 0.125 9.875 -1 11 C-3.33944736 10.71269945 -5.6739143 10.38063221 -8 10 C-8.33 9.01 -8.66 8.02 -9 7 C-8.34 6.67 -7.68 6.34 -7 6 C-7.33 5.67 -7.66 5.34 -8 5 C-8.04063832 3.33382885 -8.042721 1.66611905 -8 0 C-5.13822943 -1.43088528 -3.06624227 -0.59991697 0 0 Z " fill="#020714" transform="translate(1013,537)"/>
<path d="M0 0 C0.99 0 1.98 0 3 0 C3 1.32 3 2.64 3 4 C4.32 4 5.64 4 7 4 C7 4.99 7 5.98 7 7 C5.68 7 4.36 7 3 7 C3 8.98 3 10.96 3 13 C3.99 13 4.98 13 6 13 C6 13.99 6 14.98 6 16 C4.02 16 2.04 16 0 16 C0 13.03 0 10.06 0 7 C-1.32 7 -2.64 7 -4 7 C-4 6.01 -4 5.02 -4 4 C-2.68 4 -1.36 4 0 4 C0 2.68 0 1.36 0 0 Z " fill="#000000" transform="translate(986,647)"/>
<path d="M0 0 C0.99 0 1.98 0 3 0 C3 1.32 3 2.64 3 4 C4.32 4 5.64 4 7 4 C7 4.99 7 5.98 7 7 C5.68 7 4.36 7 3 7 C3 8.98 3 10.96 3 13 C3.99 13 4.98 13 6 13 C6 13.99 6 14.98 6 16 C4.02 16 2.04 16 0 16 C0 13.03 0 10.06 0 7 C-1.32 7 -2.64 7 -4 7 C-4 6.01 -4 5.02 -4 4 C-2.68 4 -1.36 4 0 4 C0 2.68 0 1.36 0 0 Z " fill="#000000" transform="translate(951,532)"/>
<path d="M0 0 C0.99 0 1.98 0 3 0 C3 1.32 3 2.64 3 4 C4.32 4 5.64 4 7 4 C7 4.99 7 5.98 7 7 C5.68 7 4.36 7 3 7 C3 8.98 3 10.96 3 13 C3.99 13 4.98 13 6 13 C6 13.99 6 14.98 6 16 C4.02 16 2.04 16 0 16 C0 13.03 0 10.06 0 7 C-1.32 7 -2.64 7 -4 7 C-4 6.01 -4 5.02 -4 4 C-2.68 4 -1.36 4 0 4 C0 2.68 0 1.36 0 0 Z " fill="#000000" transform="translate(937,532)"/>
<path d="M0 0 C2.31 0 4.62 0 7 0 C7 4.29 7 8.58 7 13 C7.99 13 8.98 13 10 13 C10 13.99 10 14.98 10 16 C6.7 16 3.4 16 0 16 C0 15.01 0 14.02 0 13 C1.32 13 2.64 13 4 13 C4 9.7 4 6.4 4 3 C2.68 3 1.36 3 0 3 C0 2.01 0 1.02 0 0 Z " fill="#000000" transform="translate(948,417)"/>
<path d="M0 0 C7.75 -0.125 7.75 -0.125 10 1 C10 4.63 10 8.26 10 12 C9.34 12 8.68 12 8 12 C7.67 9.03 7.34 6.06 7 3 C5.68 3 4.36 3 3 3 C3 5.97 3 8.94 3 12 C2.01 12 1.02 12 0 12 C0 8.04 0 4.08 0 0 Z " fill="#000000" transform="translate(976,536)"/>
<path d="M0 0 C0.99 0 1.98 0 3 0 C3 2.97 3 5.94 3 9 C4.32 9 5.64 9 7 9 C7.33 6.03 7.66 3.06 8 0 C8.66 0 9.32 0 10 0 C10 3.96 10 7.92 10 12 C6.71547 12 4.15301686 11.76695005 1 11 C0 10 0 10 -0.09765625 7.71484375 C-0.08605469 6.79832031 -0.07445312 5.88179687 -0.0625 4.9375 C-0.05347656 4.01839844 -0.04445313 3.09929688 -0.03515625 2.15234375 C-0.02355469 1.44207031 -0.01195312 0.73179687 0 0 Z " fill="#000000" transform="translate(969,651)"/>
<path d="M0 0 C2.31 0 4.62 0 7 0 C7 2.97 7 5.94 7 9 C7.99 9 8.98 9 10 9 C10 9.99 10 10.98 10 12 C6.7 12 3.4 12 0 12 C0 11.01 0 10.02 0 9 C1.32 9 2.64 9 4 9 C4 7.02 4 5.04 4 3 C2.68 3 1.36 3 0 3 C0 2.01 0 1.02 0 0 Z " fill="#000000" transform="translate(962,536)"/>
<path d="M0 0 C0.66 0.33 1.32 0.66 2 1 C0.7175023 3.86095641 -0.45343989 6.11365918 -3 8 C-5.6875 8.1875 -5.6875 8.1875 -8 8 C-8 9.98 -8 11.96 -8 14 C-6.35 14 -4.7 14 -3 14 C-3 14.33 -3 14.66 -3 15 C-5.31 15 -7.62 15 -10 15 C-10.1953125 8.9453125 -10.1953125 8.9453125 -10 7 C-8 5 -8 5 -5.5625 4.0625 C-3.02934779 3.0121686 -1.76854204 2.04778552 0 0 Z " fill="#251103" transform="translate(1797,36)"/>
<path d="M0 0 C1.98 0 3.96 0 6 0 C6.87867729 3.73437848 7.08912219 7.16774573 7 11 C6.731875 10.360625 6.46375 9.72125 6.1875 9.0625 C5.11332248 6.66868314 5.11332248 6.66868314 2 6 C2 7.65 2 9.3 2 11 C1.34 11 0.68 11 0 11 C0 7.37 0 3.74 0 0 Z " fill="#BABABA" transform="translate(968,752)"/>
<path d="M0 0 C0.598125 0.185625 1.19625 0.37125 1.8125 0.5625 C4.16408762 1.22093687 4.16408762 1.22093687 7 0 C6.814375 0.763125 6.62875 1.52625 6.4375 2.3125 C5.77180827 5.08967375 5.77180827 5.08967375 7 8 C6.4225 7.814375 5.845 7.62875 5.25 7.4375 C2.79307475 6.95976454 1.35602466 7.24270636 -1 8 C-0.67 5.36 -0.34 2.72 0 0 Z " fill="#180B02" transform="translate(1806,43)"/>
<path d="M0 0 C1.65 0.33 3.3 0.66 5 1 C4.67 2.65 4.34 4.3 4 6 C2.35 5.67 0.7 5.34 -1 5 C-0.67 3.35 -0.34 1.7 0 0 Z " fill="#B91C1C" transform="translate(958,654)"/>
<path d="M0 0 C1.65 0.33 3.3 0.66 5 1 C4.67 2.65 4.34 4.3 4 6 C2.35 5.67 0.7 5.34 -1 5 C-0.67 3.35 -0.34 1.7 0 0 Z " fill="#B91C1C" transform="translate(944,654)"/>
<path d="M0 0 C1.65 0.33 3.3 0.66 5 1 C4.67 2.65 4.34 4.3 4 6 C2.35 5.67 0.7 5.34 -1 5 C-0.67 3.35 -0.34 1.7 0 0 Z " fill="#1D4ED8" transform="translate(993,539)"/>
<path d="M0 0 C0.99 0.33 1.98 0.66 3 1 C2.34 1.66 1.68 2.32 1 3 C0.60235737 4.98821313 0.26224651 6.98944339 0 9 C1.65 9 3.3 9 5 9 C5 9.33 5 9.66 5 10 C2.69 10 0.38 10 -2 10 C-2.1953125 3.9453125 -2.1953125 3.9453125 -2 2 C-1.34 1.34 -0.68 0.68 0 0 Z " fill="#160A01" transform="translate(1789,41)"/>
<path d="M0 0 C1.98 0.495 1.98 0.495 4 1 C3.67 2.65 3.34 4.3 3 6 C1.68 5.67 0.36 5.34 -1 5 C-0.67 3.35 -0.34 1.7 0 0 Z " fill="#FACC15" transform="translate(965,424)"/>
<path d="M0 0 C1.65 0 3.3 0 5 0 C4.67 1.65 4.34 3.3 4 5 C2.68 4.67 1.36 4.34 0 4 C0 2.68 0 1.36 0 0 Z " fill="#1F3C43" transform="translate(1059,753)"/>
<path d="M0 0 C2.475 0.495 2.475 0.495 5 1 C4.67 1.99 4.34 2.98 4 4 C2.68 4 1.36 4 0 4 C0 2.68 0 1.36 0 0 Z " fill="#FACC15" transform="translate(937,420)"/>
</svg>
